<svg width="18" height="14" viewBox="0 0 18 14" fill="none" xmlns="http://www.w3.org/2000/svg">
<path d="M1.615 14C1.155 14 0.771 13.846 0.463 13.538C0.154333 13.2293 0 12.845 0 12.385V1.615C0 1.155 0.154333 0.771 0.463 0.463C0.771 0.154333 1.155 0 1.615 0H16.385C16.845 0 17.229 0.154333 17.537 0.463C17.8457 0.771 18 1.155 18 1.615V12.385C18 12.845 17.846 13.229 17.538 13.537C17.2293 13.8457 16.845 14 16.385 14H1.615ZM9 7.115L17 1.885L16.692 1L9 6L1.308 1L1 1.885L9 7.115Z" fill="black"/>
</svg>
